<svg xmlns="http://www.w3.org/2000/svg" xmlns:xlink="http://www.w3.org/1999/xlink" width="287" zoomAndPan="magnify" viewBox="0 0 215.25 56.999997" height="75" preserveAspectRatio="xMidYMid meet" version="1.0"><defs><g/><clipPath id="3c158c4a1e"><path d="M 129.710938 2.179688 L 157.363281 2.179688 L 157.363281 50 L 129.710938 50 Z M 129.710938 2.179688 " clip-rule="nonzero"/></clipPath><clipPath id="f0dc1fa952"><path d="M 130 49 L 135 49 L 135 53.75 L 130 53.75 Z M 130 49 " clip-rule="nonzero"/></clipPath><clipPath id="2563a200a5"><path d="M 152 49 L 157 49 L 157 53.75 L 152 53.75 Z M 152 49 " clip-rule="nonzero"/></clipPath></defs><g clip-path="url(#3c158c4a1e)"><path fill="#c19838" d="M 151.683594 11.5625 L 147.609375 11.5625 L 147.609375 4.402344 C 148.042969 4.21875 148.289062 3.847656 148.289062 3.417969 C 148.289062 2.800781 147.796875 2.304688 147.179688 2.304688 L 140.144531 2.304688 C 139.523438 2.304688 139.03125 2.800781 139.03125 3.417969 C 139.03125 3.847656 139.339844 4.28125 139.710938 4.402344 L 139.710938 11.5625 L 135.636719 11.5625 C 132.367188 11.5625 129.710938 14.21875 129.710938 17.488281 L 129.710938 43.351562 C 129.710938 46.621094 132.367188 49.277344 135.636719 49.277344 L 151.683594 49.277344 C 154.957031 49.277344 157.609375 46.621094 157.609375 43.351562 L 157.609375 17.488281 C 157.609375 14.21875 154.957031 11.5625 151.683594 11.5625 Z M 146.5625 11.5625 L 140.699219 11.5625 L 140.699219 4.527344 L 146.5625 4.527344 Z M 146.5625 11.5625 " fill-opacity="1" fill-rule="nonzero"/></g><g clip-path="url(#f0dc1fa952)"><path fill="#c19838" d="M 132.859375 49.277344 C 131.6875 49.277344 130.761719 50.203125 130.761719 51.375 C 130.761719 52.546875 131.6875 53.472656 132.859375 53.472656 C 134.03125 53.472656 134.957031 52.546875 134.957031 51.375 C 134.957031 50.203125 134.03125 49.277344 132.859375 49.277344 Z M 132.859375 52.175781 C 132.367188 52.175781 131.996094 51.808594 131.996094 51.3125 C 131.996094 50.820312 132.367188 50.449219 132.859375 50.449219 C 133.351562 50.449219 133.722656 50.820312 133.722656 51.3125 C 133.722656 51.808594 133.351562 52.175781 132.859375 52.175781 Z M 132.859375 52.175781 " fill-opacity="1" fill-rule="nonzero"/></g><g clip-path="url(#2563a200a5)"><path fill="#c19838" d="M 154.460938 49.277344 C 153.289062 49.277344 152.363281 50.203125 152.363281 51.375 C 152.363281 52.546875 153.289062 53.472656 154.460938 53.472656 C 155.636719 53.472656 156.5625 52.546875 156.5625 51.375 C 156.5625 50.203125 155.574219 49.277344 154.460938 49.277344 Z M 154.460938 52.175781 C 153.96875 52.175781 153.597656 51.808594 153.597656 51.3125 C 153.597656 50.820312 153.96875 50.449219 154.460938 50.449219 C 154.957031 50.449219 155.328125 50.820312 155.328125 51.3125 C 155.265625 51.808594 154.894531 52.175781 154.460938 52.175781 Z M 154.460938 52.175781 " fill-opacity="1" fill-rule="nonzero"/></g><g fill="#fcd301" fill-opacity="1"><g transform="translate(-0.381484, 44.945819)"><g><path d="M 3.890625 -33.53125 L 10.796875 -33.53125 L 10.796875 -6.59375 L 25.140625 -6.59375 L 25.140625 0 L 3.890625 0 Z M 3.890625 -33.53125 "/></g></g></g><g fill="#fcd301" fill-opacity="1"><g transform="translate(23.605887, 44.945819)"><g><path d="M 9.515625 0.421875 C 8.140625 0.421875 6.863281 0.148438 5.6875 -0.390625 C 4.519531 -0.929688 3.578125 -1.710938 2.859375 -2.734375 C 2.148438 -3.765625 1.796875 -4.976562 1.796875 -6.375 L 1.796875 -6.46875 C 1.796875 -7.894531 2.101562 -9.054688 2.71875 -9.953125 C 3.332031 -10.859375 4.144531 -11.570312 5.15625 -12.09375 C 6.175781 -12.625 7.285156 -12.988281 8.484375 -13.1875 C 9.679688 -13.382812 10.847656 -13.484375 11.984375 -13.484375 L 14.265625 -13.484375 C 14.890625 -13.484375 15.34375 -13.644531 15.625 -13.96875 C 15.914062 -14.300781 16.0625 -14.695312 16.0625 -15.15625 C 16.0625 -15.90625 15.757812 -16.5625 15.15625 -17.125 C 14.5625 -17.695312 13.632812 -17.984375 12.375 -17.984375 C 11.175781 -17.984375 10.171875 -17.71875 9.359375 -17.1875 C 8.546875 -16.664062 7.851562 -15.90625 7.28125 -14.90625 L 2.1875 -17.9375 C 3.101562 -19.625 4.429688 -20.953125 6.171875 -21.921875 C 7.910156 -22.898438 10.078125 -23.390625 12.671875 -23.390625 C 14.617188 -23.390625 16.34375 -23.050781 17.84375 -22.375 C 19.34375 -21.707031 20.507812 -20.6875 21.34375 -19.3125 C 22.1875 -17.945312 22.609375 -16.234375 22.609375 -14.171875 L 22.609375 0 L 16.453125 0 L 16.453125 -2.828125 L 16.359375 -2.875 C 15.503906 -1.644531 14.460938 -0.785156 13.234375 -0.296875 C 12.003906 0.179688 10.765625 0.421875 9.515625 0.421875 Z M 11.4375 -4.453125 C 12.914062 -4.453125 14.046875 -4.882812 14.828125 -5.75 C 15.617188 -6.625 16.015625 -7.660156 16.015625 -8.859375 L 16.015625 -9.375 L 11.984375 -9.375 C 11.109375 -9.375 10.3125 -9.164062 9.59375 -8.75 C 8.875 -8.34375 8.515625 -7.679688 8.515625 -6.765625 C 8.515625 -5.960938 8.800781 -5.375 9.375 -5 C 9.945312 -4.632812 10.632812 -4.453125 11.4375 -4.453125 Z M 11.4375 -4.453125 "/></g></g></g><g fill="#fcd301" fill-opacity="1"><g transform="translate(47.207752, 44.945819)"><g><path d="M 9.765625 -10.828125 L 9.765625 0 L 3.078125 0 L 3.078125 -34.90625 L 9.765625 -34.90625 L 9.765625 -13.875 L 17.6875 -22.875 L 26.203125 -22.875 L 17 -12.328125 L 26.46875 0 L 18.03125 0 L 9.9375 -10.828125 Z M 9.765625 -10.828125 "/></g></g></g><g fill="#fcd301" fill-opacity="1"><g transform="translate(71.837649, 44.945819)"><g><path d="M 9.765625 -20.125 L 9.84375 -20.125 C 10.613281 -21.09375 11.445312 -21.796875 12.34375 -22.234375 C 13.25 -22.679688 14.101562 -22.96875 14.90625 -23.09375 C 15.707031 -23.226562 16.332031 -23.296875 16.78125 -23.296875 C 18.46875 -23.296875 19.984375 -22.953125 21.328125 -22.265625 C 22.671875 -21.585938 23.8125 -20.679688 24.75 -19.546875 C 25.695312 -18.421875 26.421875 -17.15625 26.921875 -15.75 C 27.421875 -14.351562 27.671875 -12.929688 27.671875 -11.484375 C 27.671875 -9.992188 27.40625 -8.539062 26.875 -7.125 C 26.34375 -5.71875 25.59375 -4.441406 24.625 -3.296875 C 23.65625 -2.148438 22.488281 -1.242188 21.125 -0.578125 C 19.769531 0.0859375 18.269531 0.421875 16.625 0.421875 C 16.132812 0.421875 15.484375 0.359375 14.671875 0.234375 C 13.859375 0.109375 13.007812 -0.179688 12.125 -0.640625 C 11.238281 -1.097656 10.421875 -1.796875 9.671875 -2.734375 L 9.59375 -2.734375 L 9.59375 0 L 3.078125 0 L 3.078125 -34.859375 L 9.765625 -34.859375 Z M 9.59375 -11.484375 C 9.59375 -10.335938 9.847656 -9.320312 10.359375 -8.4375 C 10.878906 -7.550781 11.566406 -6.859375 12.421875 -6.359375 C 13.273438 -5.859375 14.21875 -5.609375 15.25 -5.609375 C 16.300781 -5.609375 17.25 -5.859375 18.09375 -6.359375 C 18.9375 -6.859375 19.613281 -7.550781 20.125 -8.4375 C 20.644531 -9.320312 20.90625 -10.335938 20.90625 -11.484375 C 20.90625 -13.191406 20.351562 -14.582031 19.25 -15.65625 C 18.15625 -16.726562 16.804688 -17.265625 15.203125 -17.265625 C 14.171875 -17.265625 13.234375 -17.019531 12.390625 -16.53125 C 11.554688 -16.039062 10.878906 -15.359375 10.359375 -14.484375 C 9.847656 -13.617188 9.59375 -12.617188 9.59375 -11.484375 Z M 9.59375 -11.484375 "/></g></g></g><g fill="#fcd301" fill-opacity="1"><g transform="translate(99.337468, 44.945819)"><g><path d="M 8.484375 -9.59375 C 8.710938 -8.164062 9.359375 -7.054688 10.421875 -6.265625 C 11.492188 -5.484375 12.734375 -5.09375 14.140625 -5.09375 C 15.109375 -5.09375 16.066406 -5.332031 17.015625 -5.8125 C 17.972656 -6.300781 18.710938 -6.976562 19.234375 -7.84375 L 24.0625 -4.671875 C 22.15625 -1.210938 18.875 0.515625 14.21875 0.515625 C 11.90625 0.515625 9.796875 0.0078125 7.890625 -1 C 5.992188 -2.019531 4.484375 -3.425781 3.359375 -5.21875 C 2.234375 -7.019531 1.671875 -9.109375 1.671875 -11.484375 C 1.671875 -13.140625 1.988281 -14.6875 2.625 -16.125 C 3.269531 -17.5625 4.148438 -18.828125 5.265625 -19.921875 C 6.378906 -21.023438 7.664062 -21.882812 9.125 -22.5 C 10.582031 -23.113281 12.140625 -23.421875 13.796875 -23.421875 C 16.078125 -23.421875 18.066406 -22.9375 19.765625 -21.96875 C 21.460938 -21 22.789062 -19.65625 23.75 -17.9375 C 24.707031 -16.226562 25.1875 -14.242188 25.1875 -11.984375 C 25.1875 -11.585938 25.1875 -11.1875 25.1875 -10.78125 C 25.1875 -10.382812 25.15625 -9.988281 25.09375 -9.59375 Z M 18.5 -14 C 18.46875 -14.570312 18.273438 -15.164062 17.921875 -15.78125 C 17.566406 -16.394531 17.039062 -16.914062 16.34375 -17.34375 C 15.644531 -17.769531 14.738281 -17.984375 13.625 -17.984375 C 12.625 -17.984375 11.765625 -17.753906 11.046875 -17.296875 C 10.335938 -16.847656 9.78125 -16.316406 9.375 -15.703125 C 8.976562 -15.085938 8.738281 -14.519531 8.65625 -14 Z M 18.5 -14 "/></g></g></g><g fill="#ffffff" fill-opacity="1"><g transform="translate(131.07608, 44.873428)"><g><path d="M 9.578125 -27.515625 L 16.4375 -27.515625 L 25.890625 0 L 19.375 0 L 17.25 -6.15625 L 8.6875 -6.15625 L 6.59375 0 L 0.078125 0 Z M 16.203125 -10.546875 L 12.984375 -21.125 L 9.6875 -10.546875 Z M 16.203125 -10.546875 "/></g></g></g><g fill="#fcd301" fill-opacity="1"><g transform="translate(160.325876, 44.945819)"><g><path d="M 9.765625 -20.125 L 9.84375 -20.125 C 10.613281 -21.09375 11.445312 -21.796875 12.34375 -22.234375 C 13.25 -22.679688 14.101562 -22.96875 14.90625 -23.09375 C 15.707031 -23.226562 16.332031 -23.296875 16.78125 -23.296875 C 18.46875 -23.296875 19.984375 -22.953125 21.328125 -22.265625 C 22.671875 -21.585938 23.8125 -20.679688 24.75 -19.546875 C 25.695312 -18.421875 26.421875 -17.15625 26.921875 -15.75 C 27.421875 -14.351562 27.671875 -12.929688 27.671875 -11.484375 C 27.671875 -9.992188 27.40625 -8.539062 26.875 -7.125 C 26.34375 -5.71875 25.59375 -4.441406 24.625 -3.296875 C 23.65625 -2.148438 22.488281 -1.242188 21.125 -0.578125 C 19.769531 0.0859375 18.269531 0.421875 16.625 0.421875 C 16.132812 0.421875 15.484375 0.359375 14.671875 0.234375 C 13.859375 0.109375 13.007812 -0.179688 12.125 -0.640625 C 11.238281 -1.097656 10.421875 -1.796875 9.671875 -2.734375 L 9.59375 -2.734375 L 9.59375 0 L 3.078125 0 L 3.078125 -34.859375 L 9.765625 -34.859375 Z M 9.59375 -11.484375 C 9.59375 -10.335938 9.847656 -9.320312 10.359375 -8.4375 C 10.878906 -7.550781 11.566406 -6.859375 12.421875 -6.359375 C 13.273438 -5.859375 14.21875 -5.609375 15.25 -5.609375 C 16.300781 -5.609375 17.25 -5.859375 18.09375 -6.359375 C 18.9375 -6.859375 19.613281 -7.550781 20.125 -8.4375 C 20.644531 -9.320312 20.90625 -10.335938 20.90625 -11.484375 C 20.90625 -13.191406 20.351562 -14.582031 19.25 -15.65625 C 18.15625 -16.726562 16.804688 -17.265625 15.203125 -17.265625 C 14.171875 -17.265625 13.234375 -17.019531 12.390625 -16.53125 C 11.554688 -16.039062 10.878906 -15.359375 10.359375 -14.484375 C 9.847656 -13.617188 9.59375 -12.617188 9.59375 -11.484375 Z M 9.59375 -11.484375 "/></g></g></g><g fill="#fcd301" fill-opacity="1"><g transform="translate(187.825696, 44.945819)"><g><path d="M 8.484375 -9.59375 C 8.710938 -8.164062 9.359375 -7.054688 10.421875 -6.265625 C 11.492188 -5.484375 12.734375 -5.09375 14.140625 -5.09375 C 15.109375 -5.09375 16.066406 -5.332031 17.015625 -5.8125 C 17.972656 -6.300781 18.710938 -6.976562 19.234375 -7.84375 L 24.0625 -4.671875 C 22.15625 -1.210938 18.875 0.515625 14.21875 0.515625 C 11.90625 0.515625 9.796875 0.0078125 7.890625 -1 C 5.992188 -2.019531 4.484375 -3.425781 3.359375 -5.21875 C 2.234375 -7.019531 1.671875 -9.109375 1.671875 -11.484375 C 1.671875 -13.140625 1.988281 -14.6875 2.625 -16.125 C 3.269531 -17.5625 4.148438 -18.828125 5.265625 -19.921875 C 6.378906 -21.023438 7.664062 -21.882812 9.125 -22.5 C 10.582031 -23.113281 12.140625 -23.421875 13.796875 -23.421875 C 16.078125 -23.421875 18.066406 -22.9375 19.765625 -21.96875 C 21.460938 -21 22.789062 -19.65625 23.75 -17.9375 C 24.707031 -16.226562 25.1875 -14.242188 25.1875 -11.984375 C 25.1875 -11.585938 25.1875 -11.1875 25.1875 -10.78125 C 25.1875 -10.382812 25.15625 -9.988281 25.09375 -9.59375 Z M 18.5 -14 C 18.46875 -14.570312 18.273438 -15.164062 17.921875 -15.78125 C 17.566406 -16.394531 17.039062 -16.914062 16.34375 -17.34375 C 15.644531 -17.769531 14.738281 -17.984375 13.625 -17.984375 C 12.625 -17.984375 11.765625 -17.753906 11.046875 -17.296875 C 10.335938 -16.847656 9.78125 -16.316406 9.375 -15.703125 C 8.976562 -15.085938 8.738281 -14.519531 8.65625 -14 Z M 18.5 -14 "/></g></g></g></svg>