<svg xmlns="http://www.w3.org/2000/svg" xmlns:xlink="http://www.w3.org/1999/xlink" width="1080" zoomAndPan="magnify" viewBox="0 0 810 809.999993" height="1080" preserveAspectRatio="xMidYMid meet" version="1.0"><defs><g/><clipPath id="144f07c376"><path d="M 203.625 29 L 606.375 29 L 606.375 708 L 203.625 708 Z M 203.625 29 " clip-rule="nonzero"/></clipPath></defs><rect x="-81" width="972" fill="#ffffff" y="-80.999999" height="971.999992" fill-opacity="1"/><rect x="-81" width="972" fill="#ffffff" y="-80.999999" height="971.999992" fill-opacity="1"/><g clip-path="url(#144f07c376)"><path fill="#c19838" d="M 520.828125 162.800781 L 462.019531 162.800781 L 462.019531 59.445312 C 468.257812 56.769531 471.820312 51.425781 471.820312 45.1875 C 471.820312 36.277344 464.691406 29.148438 455.78125 29.148438 L 354.207031 29.148438 C 345.296875 29.148438 338.167969 36.277344 338.167969 45.1875 C 338.167969 51.425781 342.625 57.664062 347.96875 59.445312 L 347.96875 162.800781 L 289.164062 162.800781 C 241.9375 162.800781 203.625 201.117188 203.625 248.339844 L 203.625 621.675781 C 203.625 668.898438 241.9375 707.210938 289.164062 707.210938 L 520.828125 707.210938 C 568.050781 707.210938 606.363281 668.898438 606.363281 621.675781 L 606.363281 248.339844 C 606.363281 201.117188 568.050781 162.800781 520.828125 162.800781 Z M 446.871094 162.800781 L 362.226562 162.800781 L 362.226562 61.226562 L 446.871094 61.226562 Z M 446.871094 162.800781 " fill-opacity="1" fill-rule="nonzero"/></g><path fill="#c19838" d="M 249.066406 707.210938 C 232.136719 707.210938 218.773438 720.578125 218.773438 737.503906 C 218.773438 754.433594 232.136719 767.800781 249.066406 767.800781 C 265.996094 767.800781 279.363281 754.433594 279.363281 737.503906 C 279.363281 720.578125 265.996094 707.210938 249.066406 707.210938 Z M 249.066406 749.089844 C 241.9375 749.089844 236.59375 743.742188 236.59375 736.613281 C 236.59375 729.488281 241.9375 724.140625 249.066406 724.140625 C 256.195312 724.140625 261.542969 729.488281 261.542969 736.613281 C 261.542969 743.742188 256.195312 749.089844 249.066406 749.089844 Z M 249.066406 749.089844 " fill-opacity="1" fill-rule="nonzero"/><path fill="#c19838" d="M 560.921875 707.210938 C 543.992188 707.210938 530.628906 720.578125 530.628906 737.503906 C 530.628906 754.433594 543.992188 767.800781 560.921875 767.800781 C 577.851562 767.800781 591.214844 754.433594 591.214844 737.503906 C 591.214844 720.578125 576.960938 707.210938 560.921875 707.210938 Z M 560.921875 749.089844 C 553.792969 749.089844 548.449219 743.742188 548.449219 736.613281 C 548.449219 729.488281 553.792969 724.140625 560.921875 724.140625 C 568.050781 724.140625 573.394531 729.488281 573.394531 736.613281 C 572.503906 743.742188 567.160156 749.089844 560.921875 749.089844 Z M 560.921875 749.089844 " fill-opacity="1" fill-rule="nonzero"/><g fill="#ffffff" fill-opacity="1"><g transform="translate(223.324904, 643.562864)"><g><path d="M 138.171875 -397.1875 L 237.1875 -397.1875 L 373.6875 0 L 279.703125 0 L 248.9375 -88.953125 L 125.3125 -88.953125 L 95.109375 0 L 1.125 0 Z M 233.84375 -152.15625 L 187.40625 -304.890625 L 139.859375 -152.15625 Z M 233.84375 -152.15625 "/></g></g></g></svg>