<svg xmlns="http://www.w3.org/2000/svg" xmlns:xlink="http://www.w3.org/1999/xlink" width="1920" zoomAndPan="magnify" viewBox="0 0 1440 809.999993" height="1080" preserveAspectRatio="xMidYMid meet" version="1.0"><defs><g/><clipPath id="8f04d26266"><path d="M 866.957031 221.027344 L 1054.457031 221.027344 L 1054.457031 538 L 866.957031 538 Z M 866.957031 221.027344 " clip-rule="nonzero"/></clipPath></defs><g clip-path="url(#8f04d26266)"><path fill="#c19838" d="M 1014.511719 284.070312 L 987.15625 284.070312 L 987.15625 235.988281 C 990.058594 234.746094 991.714844 232.261719 991.714844 229.359375 C 991.714844 225.214844 988.398438 221.898438 984.253906 221.898438 L 937.003906 221.898438 C 932.859375 221.898438 929.542969 225.214844 929.542969 229.359375 C 929.542969 232.261719 931.617188 235.160156 934.101562 235.988281 L 934.101562 284.070312 L 906.746094 284.070312 C 884.777344 284.070312 866.957031 301.894531 866.957031 323.859375 L 866.957031 497.53125 C 866.957031 519.5 884.777344 537.320312 906.746094 537.320312 L 1014.511719 537.320312 C 1036.480469 537.320312 1054.304688 519.5 1054.304688 497.53125 L 1054.304688 323.859375 C 1054.304688 301.894531 1036.480469 284.070312 1014.511719 284.070312 Z M 980.109375 284.070312 L 940.734375 284.070312 L 940.734375 236.820312 L 980.109375 236.820312 Z M 980.109375 284.070312 " fill-opacity="1" fill-rule="nonzero"/></g><path fill="#c19838" d="M 888.09375 537.320312 C 880.21875 537.320312 874.003906 543.539062 874.003906 551.414062 C 874.003906 559.289062 880.21875 565.507812 888.09375 565.507812 C 895.96875 565.507812 902.1875 559.289062 902.1875 551.414062 C 902.1875 543.539062 895.96875 537.320312 888.09375 537.320312 Z M 888.09375 556.800781 C 884.777344 556.800781 882.292969 554.316406 882.292969 551 C 882.292969 547.683594 884.777344 545.195312 888.09375 545.195312 C 891.410156 545.195312 893.898438 547.683594 893.898438 551 C 893.898438 554.316406 891.410156 556.800781 888.09375 556.800781 Z M 888.09375 556.800781 " fill-opacity="1" fill-rule="nonzero"/><path fill="#c19838" d="M 1033.164062 537.320312 C 1025.289062 537.320312 1019.070312 543.539062 1019.070312 551.414062 C 1019.070312 559.289062 1025.289062 565.507812 1033.164062 565.507812 C 1041.039062 565.507812 1047.257812 559.289062 1047.257812 551.414062 C 1047.257812 543.539062 1040.625 537.320312 1033.164062 537.320312 Z M 1033.164062 556.800781 C 1029.847656 556.800781 1027.363281 554.316406 1027.363281 551 C 1027.363281 547.683594 1029.847656 545.195312 1033.164062 545.195312 C 1036.480469 545.195312 1038.96875 547.683594 1038.96875 551 C 1038.554688 554.316406 1036.066406 556.800781 1033.164062 556.800781 Z M 1033.164062 556.800781 " fill-opacity="1" fill-rule="nonzero"/><g fill="#fcd301" fill-opacity="1"><g transform="translate(-2.561702, 531.137304)"><g><path d="M 26.171875 -225.21875 L 72.484375 -225.21875 L 72.484375 -44.296875 L 168.84375 -44.296875 L 168.84375 0 L 26.171875 0 Z M 26.171875 -225.21875 "/></g></g></g><g fill="#fcd301" fill-opacity="1"><g transform="translate(158.516125, 531.137304)"><g><path d="M 63.859375 2.875 C 54.648438 2.875 46.113281 1.054688 38.25 -2.578125 C 30.394531 -6.222656 24.066406 -11.5 19.265625 -18.40625 C 14.472656 -25.3125 12.078125 -33.460938 12.078125 -42.859375 L 12.078125 -43.4375 C 12.078125 -53.019531 14.140625 -60.832031 18.265625 -66.875 C 22.390625 -72.914062 27.851562 -77.707031 34.65625 -81.25 C 41.46875 -84.800781 48.898438 -87.25 56.953125 -88.59375 C 65.003906 -89.9375 72.867188 -90.609375 80.546875 -90.609375 L 95.78125 -90.609375 C 100 -90.609375 103.066406 -91.707031 104.984375 -93.90625 C 106.898438 -96.113281 107.859375 -98.753906 107.859375 -101.828125 C 107.859375 -106.804688 105.84375 -111.210938 101.8125 -115.046875 C 97.789062 -118.890625 91.5625 -120.8125 83.125 -120.8125 C 75.070312 -120.8125 68.3125 -119.035156 62.84375 -115.484375 C 57.382812 -111.941406 52.738281 -106.8125 48.90625 -100.09375 L 14.671875 -120.515625 C 20.804688 -131.835938 29.722656 -140.753906 41.421875 -147.265625 C 53.117188 -153.785156 67.691406 -157.046875 85.140625 -157.046875 C 98.179688 -157.046875 109.734375 -154.789062 119.796875 -150.28125 C 129.867188 -145.78125 137.734375 -138.925781 143.390625 -129.71875 C 149.046875 -120.519531 151.875 -109.015625 151.875 -95.203125 L 151.875 0 L 110.453125 0 L 110.453125 -18.984375 L 109.875 -19.265625 C 104.125 -11.023438 97.125 -5.273438 88.875 -2.015625 C 80.632812 1.242188 72.296875 2.875 63.859375 2.875 Z M 76.796875 -29.921875 C 86.765625 -29.921875 94.382812 -32.84375 99.65625 -38.6875 C 104.9375 -44.53125 107.578125 -51.484375 107.578125 -59.546875 L 107.578125 -63 L 80.546875 -63 C 74.597656 -63 69.222656 -61.609375 64.421875 -58.828125 C 59.628906 -56.046875 57.234375 -51.585938 57.234375 -45.453125 C 57.234375 -40.078125 59.148438 -36.144531 62.984375 -33.65625 C 66.828125 -31.164062 71.429688 -29.921875 76.796875 -29.921875 Z M 76.796875 -29.921875 "/></g></g></g><g fill="#fcd301" fill-opacity="1"><g transform="translate(317.005235, 531.137304)"><g><path d="M 65.578125 -72.765625 L 65.578125 0 L 20.703125 0 L 20.703125 -234.421875 L 65.578125 -234.421875 L 65.578125 -93.203125 L 118.796875 -153.59375 L 176.03125 -153.59375 L 114.1875 -82.84375 L 177.765625 0 L 121.09375 0 L 66.734375 -72.765625 Z M 65.578125 -72.765625 "/></g></g></g><g fill="#fcd301" fill-opacity="1"><g transform="translate(482.397688, 531.137304)"><g><path d="M 65.578125 -135.1875 L 66.15625 -135.1875 C 71.332031 -141.707031 76.941406 -146.453125 82.984375 -149.421875 C 89.023438 -152.398438 94.726562 -154.316406 100.09375 -155.171875 C 105.46875 -156.035156 109.6875 -156.46875 112.75 -156.46875 C 124.0625 -156.46875 134.222656 -154.164062 143.234375 -149.5625 C 152.253906 -144.96875 159.925781 -138.882812 166.25 -131.3125 C 172.582031 -123.738281 177.425781 -115.25 180.78125 -105.84375 C 184.132812 -96.445312 185.8125 -86.863281 185.8125 -77.09375 C 185.8125 -67.113281 184.035156 -57.378906 180.484375 -47.890625 C 176.941406 -38.398438 171.910156 -29.816406 165.390625 -22.140625 C 158.867188 -14.472656 151.050781 -8.382812 141.9375 -3.875 C 132.832031 0.625 122.722656 2.875 111.609375 2.875 C 108.347656 2.875 103.984375 2.441406 98.515625 1.578125 C 93.046875 0.710938 87.335938 -1.25 81.390625 -4.3125 C 75.453125 -7.382812 69.988281 -12.082031 65 -18.40625 L 64.4375 -18.40625 L 64.4375 0 L 20.703125 0 L 20.703125 -234.140625 L 65.578125 -234.140625 Z M 64.4375 -77.09375 C 64.4375 -69.414062 66.160156 -62.601562 69.609375 -56.65625 C 73.054688 -50.71875 77.65625 -46.070312 83.40625 -42.71875 C 89.164062 -39.363281 95.5 -37.6875 102.40625 -37.6875 C 109.5 -37.6875 115.875 -39.363281 121.53125 -42.71875 C 127.1875 -46.070312 131.738281 -50.71875 135.1875 -56.65625 C 138.644531 -62.601562 140.375 -69.414062 140.375 -77.09375 C 140.375 -88.59375 136.679688 -97.9375 129.296875 -105.125 C 121.910156 -112.320312 112.847656 -115.921875 102.109375 -115.921875 C 95.203125 -115.921875 88.921875 -114.289062 83.265625 -111.03125 C 77.609375 -107.769531 73.054688 -103.210938 69.609375 -97.359375 C 66.160156 -91.515625 64.4375 -84.757812 64.4375 -77.09375 Z M 64.4375 -77.09375 "/></g></g></g><g fill="#fcd301" fill-opacity="1"><g transform="translate(667.061987, 531.137304)"><g><path d="M 56.953125 -64.4375 C 58.484375 -54.84375 62.84375 -47.410156 70.03125 -42.140625 C 77.226562 -36.867188 85.523438 -34.234375 94.921875 -34.234375 C 101.441406 -34.234375 107.910156 -35.863281 114.328125 -39.125 C 120.753906 -42.382812 125.695312 -46.890625 129.15625 -52.640625 L 161.65625 -31.359375 C 148.800781 -8.148438 126.75 3.453125 95.5 3.453125 C 79.96875 3.453125 65.820312 0.0507812 53.0625 -6.75 C 40.3125 -13.5625 30.148438 -23.007812 22.578125 -35.09375 C 15.003906 -47.175781 11.21875 -61.175781 11.21875 -77.09375 C 11.21875 -88.207031 13.375 -98.609375 17.6875 -108.296875 C 22 -117.984375 27.894531 -126.515625 35.375 -133.890625 C 42.851562 -141.273438 51.484375 -147.03125 61.265625 -151.15625 C 71.046875 -155.28125 81.5 -157.34375 92.625 -157.34375 C 107.957031 -157.34375 121.328125 -154.082031 132.734375 -147.5625 C 144.148438 -141.039062 153.066406 -132.023438 159.484375 -120.515625 C 165.910156 -109.015625 169.125 -95.691406 169.125 -80.546875 C 169.125 -77.859375 169.125 -75.171875 169.125 -72.484375 C 169.125 -69.796875 168.9375 -67.113281 168.5625 -64.4375 Z M 124.265625 -94.0625 C 124.066406 -97.894531 122.769531 -101.875 120.375 -106 C 117.976562 -110.125 114.429688 -113.625 109.734375 -116.5 C 105.035156 -119.375 98.945312 -120.8125 91.46875 -120.8125 C 84.757812 -120.8125 79.003906 -119.273438 74.203125 -116.203125 C 69.410156 -113.140625 65.671875 -109.546875 62.984375 -105.421875 C 60.304688 -101.296875 58.679688 -97.507812 58.109375 -94.0625 Z M 124.265625 -94.0625 "/></g></g></g><g fill="#ffffff" fill-opacity="1"><g transform="translate(876.11984, 507.715462)"><g><path d="M 64.28125 -184.765625 L 110.34375 -184.765625 L 173.84375 0 L 130.109375 0 L 115.796875 -41.375 L 58.296875 -41.375 L 44.234375 0 L 0.515625 0 Z M 108.78125 -70.78125 L 87.171875 -141.828125 L 65.0625 -70.78125 Z M 108.78125 -70.78125 "/></g></g></g><g fill="#fcd301" fill-opacity="1"><g transform="translate(1074.972374, 531.137304)"><g><path d="M 65.578125 -135.1875 L 66.15625 -135.1875 C 71.332031 -141.707031 76.941406 -146.453125 82.984375 -149.421875 C 89.023438 -152.398438 94.726562 -154.316406 100.09375 -155.171875 C 105.46875 -156.035156 109.6875 -156.46875 112.75 -156.46875 C 124.0625 -156.46875 134.222656 -154.164062 143.234375 -149.5625 C 152.253906 -144.96875 159.925781 -138.882812 166.25 -131.3125 C 172.582031 -123.738281 177.425781 -115.25 180.78125 -105.84375 C 184.132812 -96.445312 185.8125 -86.863281 185.8125 -77.09375 C 185.8125 -67.113281 184.035156 -57.378906 180.484375 -47.890625 C 176.941406 -38.398438 171.910156 -29.816406 165.390625 -22.140625 C 158.867188 -14.472656 151.050781 -8.382812 141.9375 -3.875 C 132.832031 0.625 122.722656 2.875 111.609375 2.875 C 108.347656 2.875 103.984375 2.441406 98.515625 1.578125 C 93.046875 0.710938 87.335938 -1.25 81.390625 -4.3125 C 75.453125 -7.382812 69.988281 -12.082031 65 -18.40625 L 64.4375 -18.40625 L 64.4375 0 L 20.703125 0 L 20.703125 -234.140625 L 65.578125 -234.140625 Z M 64.4375 -77.09375 C 64.4375 -69.414062 66.160156 -62.601562 69.609375 -56.65625 C 73.054688 -50.71875 77.65625 -46.070312 83.40625 -42.71875 C 89.164062 -39.363281 95.5 -37.6875 102.40625 -37.6875 C 109.5 -37.6875 115.875 -39.363281 121.53125 -42.71875 C 127.1875 -46.070312 131.738281 -50.71875 135.1875 -56.65625 C 138.644531 -62.601562 140.375 -69.414062 140.375 -77.09375 C 140.375 -88.59375 136.679688 -97.9375 129.296875 -105.125 C 121.910156 -112.320312 112.847656 -115.921875 102.109375 -115.921875 C 95.203125 -115.921875 88.921875 -114.289062 83.265625 -111.03125 C 77.609375 -107.769531 73.054688 -103.210938 69.609375 -97.359375 C 66.160156 -91.515625 64.4375 -84.757812 64.4375 -77.09375 Z M 64.4375 -77.09375 "/></g></g></g><g fill="#fcd301" fill-opacity="1"><g transform="translate(1259.636673, 531.137304)"><g><path d="M 56.953125 -64.4375 C 58.484375 -54.84375 62.84375 -47.410156 70.03125 -42.140625 C 77.226562 -36.867188 85.523438 -34.234375 94.921875 -34.234375 C 101.441406 -34.234375 107.910156 -35.863281 114.328125 -39.125 C 120.753906 -42.382812 125.695312 -46.890625 129.15625 -52.640625 L 161.65625 -31.359375 C 148.800781 -8.148438 126.75 3.453125 95.5 3.453125 C 79.96875 3.453125 65.820312 0.0507812 53.0625 -6.75 C 40.3125 -13.5625 30.148438 -23.007812 22.578125 -35.09375 C 15.003906 -47.175781 11.21875 -61.175781 11.21875 -77.09375 C 11.21875 -88.207031 13.375 -98.609375 17.6875 -108.296875 C 22 -117.984375 27.894531 -126.515625 35.375 -133.890625 C 42.851562 -141.273438 51.484375 -147.03125 61.265625 -151.15625 C 71.046875 -155.28125 81.5 -157.34375 92.625 -157.34375 C 107.957031 -157.34375 121.328125 -154.082031 132.734375 -147.5625 C 144.148438 -141.039062 153.066406 -132.023438 159.484375 -120.515625 C 165.910156 -109.015625 169.125 -95.691406 169.125 -80.546875 C 169.125 -77.859375 169.125 -75.171875 169.125 -72.484375 C 169.125 -69.796875 168.9375 -67.113281 168.5625 -64.4375 Z M 124.265625 -94.0625 C 124.066406 -97.894531 122.769531 -101.875 120.375 -106 C 117.976562 -110.125 114.429688 -113.625 109.734375 -116.5 C 105.035156 -119.375 98.945312 -120.8125 91.46875 -120.8125 C 84.757812 -120.8125 79.003906 -119.273438 74.203125 -116.203125 C 69.410156 -113.140625 65.671875 -109.546875 62.984375 -105.421875 C 60.304688 -101.296875 58.679688 -97.507812 58.109375 -94.0625 Z M 124.265625 -94.0625 "/></g></g></g></svg>